<svg width="22" height="22" viewBox="0 0 22 22" fill="none" xmlns="http://www.w3.org/2000/svg">
<g opacity="0.6">
<path d="M11 0C17.0751 0 22 4.92487 22 11C22 17.0751 17.0751 22 11 22C4.92487 22 0 17.0751 0 11C0 4.92487 4.92487 0 11 0ZM11 2.2C6.13989 2.2 2.2 6.13989 2.2 11C2.2 15.8601 6.13989 19.8 11 19.8C15.8601 19.8 19.8 15.8601 19.8 11C19.8 6.13989 15.8601 2.2 11 2.2ZM11 5.5C11.5641 5.5 12.0291 5.92464 12.0926 6.47172L12.1 6.6V10.5204L15.0809 13.5253C15.4759 13.9234 15.5039 14.5475 15.1666 14.9777L15.0747 15.0809C14.6766 15.4759 14.0525 15.5039 13.6223 15.1666L13.5191 15.0747L10.2191 11.7483C10.0488 11.5766 9.94072 11.3546 9.90944 11.1174L9.9 10.9735V6.6C9.9 5.99249 10.3925 5.5 11 5.5Z" fill="#1D1D1D"/>
</g>
</svg>
