<svg width="48" height="61" viewBox="0 0 48 61" fill="none" xmlns="http://www.w3.org/2000/svg">
<path fill-rule="evenodd" clip-rule="evenodd" d="M21.078 17.8738L22.1064 19.879L18.7452 21.6034L17.7168 19.5982L21.078 17.8738ZM14.3628 20.6938L16.8528 23.5342L15.1572 25.0198L12.6672 22.1794L14.3628 20.6938ZM23.5296 21.565L27.1896 22.4986L26.6316 24.6826L22.9716 23.7478L23.5296 21.565ZM1.8636 26.1454H38.298C37.7952 23.9098 36.708 22.0306 35.2716 20.599L47.4744 10.8058L45.3024 8.10459L32.3316 18.5134C31.3812 18.0562 30.3708 17.7418 29.3352 17.5834L36.84 2.45619L33.7308 0.921387L26.0592 16.3834C22.0368 13.3246 16.3668 13.7998 12.888 17.4778C7.5408 17.2246 3.0228 20.989 1.8636 26.1454ZM0 30.5374C0 40.9186 8.0172 49.645 18.3432 50.5414V57.4462H8.0736V60.9214H32.0892V57.4462H21.8196V50.5414C32.1444 49.6474 40.164 40.9162 40.164 30.5374V27.7642H0V30.5374Z" fill="#1D1D1D"/>
</svg>
