<svg width="100" height="95" viewBox="0 0 100 95" fill="none" xmlns="http://www.w3.org/2000/svg">
<path d="M81.2928 68.7311C81.2928 75.5414 81.2305 82.2198 81.3331 88.8958C81.3624 90.7683 80.6238 91.8621 78.932 92.1551C75.1893 92.8032 71.4332 93.5735 67.6552 93.7786C60.436 94.1716 53.1973 94.3938 45.9683 94.3352C38.0777 94.2705 30.1652 94.124 22.3796 92.5384C21.674 92.3943 20.9892 92.1367 20.3056 91.8999C19.1033 91.4824 18.5991 90.6853 18.6101 89.3511C18.665 82.9535 18.6003 76.5546 18.6662 70.1557C18.6785 69.0058 18.3013 68.5529 17.2649 68.1232C5.63532 63.3003 -1.00892 52.1761 0.125104 39.5516C1.20054 27.5839 11.0833 17.0872 22.9826 15.3587C24.6306 15.1194 25.6498 14.5017 26.5971 12.9966C37.7482 -4.72542 63.3181 -4.21151 73.9393 13.8536C74.2653 14.4078 75.0441 14.9241 75.6837 15.0327C87.2254 16.9859 95.1611 23.3579 98.7182 34.5248C103.043 48.1026 96.0864 62.4922 82.9236 68.0146C82.4097 68.2306 81.9019 68.4638 81.2928 68.7311ZM23.9824 86.7803C41.3919 84.9151 58.6111 84.9298 75.9462 86.7742V71.5693C75.8509 69.2768 75.9462 66.977 75.9462 64.7016C90.9778 61.7085 96.6235 47.4947 93.988 37.1383C91.3611 26.8173 81.9349 20.9897 76.6798 20.9751C76.9728 22.949 77.4208 24.9265 77.5172 26.9211C77.6136 28.9182 76.4381 30.0681 74.7792 30.0278C73.2362 29.9911 72.2902 28.8364 72.2267 26.9089C71.692 10.7847 54.8647 0.567509 40.3092 7.54744C36.6727 9.2906 33.7015 11.8138 31.4982 15.2549C33.5319 15.7664 35.4642 16.1167 37.3002 16.749C39.3143 17.4436 40.0247 18.9402 39.3631 20.4978C38.7455 21.9504 37.2892 22.4094 35.3739 21.655C31.6752 20.2 27.8324 19.8752 23.975 20.5112C13.5857 22.2251 6.04181 30.7516 5.34602 41.3631C4.68074 51.5047 11.3897 60.9236 21.4067 63.9082C22.249 64.1584 23.09 64.3891 23.9824 64.643C23.9824 67.0429 24.0751 69.3427 23.9824 71.6376V86.7803Z" fill="#608049"/>
</svg>
