<svg width="105" height="98" viewBox="0 0 105 98" fill="none" xmlns="http://www.w3.org/2000/svg">
<path d="M15.5836 65.4435C12.6334 65.4435 9.69579 65.4435 6.74551 65.4435C6.38945 65.4435 6.02066 65.418 5.66459 65.4435C5.14321 65.4816 5.88078 65.3545 5.81719 65.4943C5.81719 65.5071 5.32124 65.3799 5.32124 65.3672C5.42298 65.4053 5.52471 65.4562 5.61373 65.4943C5.51199 65.4435 5.41026 65.3926 5.32124 65.3417C4.85072 65.1128 5.65188 65.736 5.30852 65.3417C5.32124 65.3545 5.07962 65.1128 5.07962 65.1001C5.14321 65.1891 5.20679 65.2654 5.27038 65.3544C5.20679 65.2654 5.15592 65.1637 5.09234 65.0747C4.79986 64.6423 5.18136 65.5833 5.09234 65.062C5.06691 64.9475 5.04147 64.8458 5.01604 64.7313C5.06691 65.1255 5.07962 65.1764 5.06691 64.8839C5.10506 64.3753 5.06691 63.8412 5.06691 63.3325C5.06691 56.4782 5.06691 49.6239 5.06691 42.7568C5.06691 41.5996 5.06691 40.4297 5.06691 39.2724C5.06691 38.9927 5.06691 38.7256 5.06691 38.4459C5.06691 38.4204 5.06691 38.3823 5.06691 38.3441C5.02876 37.7846 4.93974 38.7383 5.04147 38.4204C5.05419 38.3823 5.11777 38.0135 5.15592 38.0135C5.11777 38.1152 5.06691 38.217 5.02876 38.306C5.07962 38.2042 5.13049 38.1025 5.18136 38.0135C5.33396 37.7846 5.29581 37.8227 5.07962 38.1279C5.15593 38.0389 5.23222 37.9626 5.30852 37.8863C5.65188 37.4921 4.85072 38.1025 5.32124 37.8863C5.35939 37.8736 5.60101 37.7083 5.61373 37.7337C5.51199 37.7719 5.41026 37.8227 5.32124 37.8609C5.42298 37.8227 5.53743 37.7973 5.65188 37.7719C6.18598 37.6065 5.09234 37.7464 5.66459 37.7846C5.76633 37.7846 5.85534 37.7846 5.95708 37.7846C6.56748 37.7846 7.17788 37.7846 7.801 37.7846C9.68308 37.7846 11.5652 37.7846 13.4599 37.7846C14.0703 37.7846 14.6807 37.7846 15.3039 37.7846C15.4056 37.7846 15.4946 37.7846 15.5964 37.7846C16.1305 37.7464 15.3802 37.8736 15.4438 37.7337C15.4438 37.721 15.9397 37.8482 15.9397 37.8609C15.927 37.9626 15.4565 37.5811 15.7871 37.81C15.8888 37.8609 15.9779 37.9245 16.0669 37.988C15.7744 37.7464 15.7362 37.721 15.9397 37.899C15.9779 37.9372 16.016 37.9753 16.0542 38.0135C16.2322 38.2169 16.2068 38.1788 15.9651 37.8863C15.9779 37.8863 16.2322 38.306 16.2195 38.3187C16.194 38.3441 16.0542 37.7464 16.1686 38.2678C16.2703 38.7383 16.0669 38.3187 16.1686 38.1915C16.1686 38.2042 16.1686 38.4077 16.1686 38.4586C16.1686 38.7383 16.1686 39.0054 16.1686 39.2852C16.1686 42.1591 16.1686 45.0458 16.1686 47.9198C16.1686 51.6967 16.1686 55.4736 16.1686 59.2631C16.1686 61.1325 16.0542 63.04 16.1686 64.8966C16.2068 65.4689 16.3466 64.3753 16.1813 64.9094C16.1686 64.9602 16.1559 65.0238 16.1432 65.0747C16.0542 65.3417 16.0796 65.2909 16.2195 64.9348C16.2322 64.9475 15.9906 65.3672 15.9651 65.3672C15.9143 65.3545 16.4229 64.9094 16.0542 65.24C16.016 65.2782 15.9779 65.3163 15.9397 65.3544C15.7362 65.5325 15.7744 65.507 16.0669 65.2654C16.0669 65.2781 15.6472 65.5325 15.6345 65.5198C15.7362 65.4816 15.838 65.4307 15.927 65.3926C15.8253 65.4307 15.7108 65.4562 15.5964 65.4816C15.0495 65.6342 16.1686 65.418 15.5836 65.4435C14.2611 65.4816 12.9767 66.588 13.0403 67.9868C13.1039 69.3348 14.1594 70.5683 15.5836 70.5302C18.7882 70.4411 21.2299 67.9105 21.2426 64.7059C21.2426 63.8284 21.2426 62.951 21.2426 62.0735C21.2426 58.3857 21.2426 54.7105 21.2426 51.0227C21.2426 47.5129 21.2426 44.0031 21.2426 40.4932C21.2426 39.7811 21.2553 39.069 21.2426 38.3568C21.1663 35.1522 18.6484 32.6852 15.4438 32.6597C12.2773 32.6343 9.11082 32.6597 5.95708 32.6597C2.71431 32.6597 0.0819522 35.025 0.00565188 38.3314C-0.00706484 38.9545 0.00565188 39.5904 0.00565188 40.2135C0.00565188 47.3857 0.00565188 54.5579 0.00565188 61.7302C0.00565188 62.6839 0.00565188 63.6504 0.00565188 64.6042C0.0183686 67.2874 1.72241 69.8435 4.46922 70.3903C5.88078 70.67 7.39407 70.5302 8.81834 70.5302C10.7131 70.5302 12.6079 70.5302 14.5027 70.5302C14.8588 70.5302 15.2276 70.5302 15.5836 70.5302C16.9189 70.5302 18.1906 69.3602 18.127 67.9868C18.0634 66.6007 17.0079 65.4435 15.5836 65.4435Z" fill="#608049"/>
<path d="M99.3357 65.4435C96.4109 65.4435 93.4733 65.4435 90.5485 65.4435C90.2179 65.4435 89.8745 65.418 89.5439 65.4435C88.9716 65.4816 90.0653 65.6215 89.5312 65.4562C89.4803 65.4434 89.4167 65.4307 89.3658 65.418C89.0988 65.329 89.1497 65.3544 89.5057 65.4943C89.493 65.507 89.0733 65.2654 89.0733 65.24C89.1115 65.1383 89.4676 65.6342 89.2005 65.329C89.1624 65.2908 89.1242 65.2527 89.0861 65.2146C88.908 65.0111 88.9335 65.0492 89.1751 65.3417C89.1624 65.3417 88.908 64.9221 88.9208 64.9093C88.9589 65.0111 89.0098 65.1128 89.0479 65.2018C89.0098 65.1001 88.9843 64.9856 88.9589 64.8712C88.8063 64.3752 88.9462 65.3544 88.9716 64.8585C89.0098 64.3244 88.9716 63.7776 88.9716 63.2435C88.9716 56.4146 88.9716 49.573 88.9716 42.7441C88.9716 41.5742 88.9716 40.4042 88.9716 39.2343C88.9716 38.9672 88.9716 38.7002 88.9716 38.4331C88.9716 38.4077 88.9716 38.3695 88.9716 38.3314C88.9335 37.7719 88.7809 38.8401 88.9589 38.3187C88.9716 38.2805 89.0352 37.988 89.0479 37.988C88.9716 37.9753 88.819 38.5221 89.0733 37.988C89.2259 37.7591 89.1878 37.7973 88.9716 38.1025C89.0479 38.0135 89.1242 37.9372 89.2005 37.8609C89.5439 37.4667 88.7427 38.0771 89.2132 37.8609C89.1878 37.8736 89.493 37.6956 89.5057 37.7083C89.404 37.7464 89.3023 37.7973 89.2132 37.8354C89.315 37.7973 89.4294 37.7719 89.5439 37.7464C90.078 37.5811 88.9843 37.721 89.5566 37.7591C89.6583 37.7591 89.7473 37.7591 89.8491 37.7591C90.4595 37.7591 91.0826 37.7591 91.693 37.7591C93.5496 37.7591 95.4063 37.7591 97.2629 37.7591C97.8733 37.7591 98.4837 37.7591 99.0941 37.7591C99.1704 37.7591 99.2594 37.7591 99.3357 37.7591C99.8953 37.721 98.8271 37.5684 99.3485 37.7464C99.3866 37.7591 99.6791 37.8227 99.6791 37.8354C99.6918 37.7591 99.145 37.6065 99.6791 37.8609C99.908 38.0135 99.8698 37.9753 99.5646 37.7591C99.6537 37.8354 99.73 37.9117 99.8063 37.988C100.2 38.3314 99.5901 37.5302 99.8063 38.0008C99.7936 37.9753 99.9716 38.2805 99.9589 38.2932C99.9207 38.1915 99.8699 38.0898 99.8317 38.0008C99.8699 38.1025 99.8953 38.2169 99.9207 38.3314C100.086 38.8655 99.9461 37.7719 99.908 38.3441C99.908 38.3823 99.908 38.4204 99.908 38.4586C99.908 38.7256 99.908 38.9927 99.908 39.2597C99.908 42.1846 99.908 45.0967 99.908 48.0215C99.908 51.7984 99.908 55.5626 99.908 59.3394C99.908 61.1706 99.7935 63.04 99.908 64.8712C99.9461 65.4435 100.086 64.3498 99.9207 64.8839C99.908 64.9348 99.8953 64.9984 99.8826 65.0492C99.7935 65.3163 99.819 65.2654 99.9589 64.9093C99.9716 64.9221 99.73 65.3417 99.7045 65.3417C99.6537 65.329 100.162 64.8839 99.7936 65.2146C99.7554 65.2527 99.7173 65.2908 99.6791 65.329C99.4756 65.507 99.5138 65.4816 99.8063 65.24C99.8063 65.2527 99.3866 65.507 99.3739 65.4943C99.4756 65.4562 99.5774 65.4053 99.6664 65.3672C99.5647 65.4053 99.4502 65.4307 99.3357 65.4562C98.7889 65.6342 99.9207 65.418 99.3357 65.4435C98.0132 65.4816 96.7288 66.588 96.7924 67.9868C96.856 69.3348 97.9115 70.5683 99.3357 70.5301C102.54 70.4411 104.982 67.9105 104.995 64.7059C104.995 63.8284 104.995 62.951 104.995 62.0735C104.995 58.4365 104.995 54.7995 104.995 51.1499C104.995 47.6019 104.995 44.0539 104.995 40.4932C104.995 39.7811 105.007 39.069 104.995 38.3568C104.931 35.1649 102.413 32.6852 99.234 32.6597C96.1057 32.6343 92.9647 32.6597 89.8364 32.6597C86.5936 32.6597 83.9612 35.025 83.8849 38.3314C83.8722 38.9545 83.8849 39.5904 83.8849 40.2135C83.8849 47.3603 83.8849 54.5071 83.8849 61.6539C83.8849 62.6331 83.8849 63.6122 83.8849 64.5787C83.8849 67.2111 85.4999 69.7417 88.1832 70.3521C89.5947 70.67 91.1589 70.5174 92.5832 70.5174C94.478 70.5174 96.36 70.5174 98.2548 70.5174C98.6109 70.5174 98.9797 70.5174 99.3357 70.5174C100.671 70.5174 101.943 69.3475 101.879 67.9741C101.816 66.6007 100.76 65.4435 99.3357 65.4435Z" fill="#608049"/>
<path d="M55.3107 92.0977C53.3015 92.0977 51.2541 92.2122 49.2448 92.085C48.7107 92.0469 49.283 92.1486 49.3084 92.1104C49.2957 92.1232 48.9524 92.0469 48.9651 92.0469C48.7362 91.996 48.52 91.9324 48.3038 91.8688C48.2529 91.8561 47.9859 91.7798 47.9859 91.7544C47.9859 91.7544 48.4818 91.996 48.1258 91.8052C47.8842 91.6781 47.6298 91.5509 47.4009 91.3983C47.3628 91.3729 47.1212 91.2203 47.1212 91.2076C47.1212 91.2076 47.5281 91.5636 47.2356 91.2966C47.0703 91.144 46.905 91.0041 46.7524 90.8388C46.6506 90.737 46.5616 90.6353 46.4726 90.5336C46.3581 90.4064 46.3327 90.1902 46.409 90.47C46.498 90.7625 46.4472 90.5081 46.3709 90.3937C46.2946 90.2792 46.2183 90.1648 46.1547 90.0376C46.0784 89.9104 46.0275 89.796 45.9512 89.6688C45.8876 89.5671 45.824 89.2492 45.9003 89.5925C45.9894 89.9868 45.7986 89.2619 45.7732 89.1729C45.7096 88.9567 45.7096 88.6261 45.6079 88.4226C45.646 88.4862 45.646 89.033 45.6333 88.5752C45.6333 88.4226 45.6206 88.2827 45.6079 88.1301C45.6079 87.9266 45.6206 87.7232 45.6333 87.507C45.6587 87.1 45.6079 87.6723 45.6079 87.6596C45.5951 87.6469 45.6714 87.3035 45.6714 87.3162C45.7223 87.0873 45.7732 86.8711 45.8495 86.655C45.8495 86.6677 45.9385 86.337 45.9639 86.337C45.824 86.655 45.7986 86.7313 45.8749 86.5532C45.9131 86.4769 45.9512 86.4006 45.9894 86.3243C46.0911 86.1209 46.2055 85.9301 46.32 85.7394C46.3073 85.7521 46.498 85.4596 46.5107 85.4596C46.5107 85.4596 46.1547 85.8665 46.4217 85.574C46.5871 85.3833 46.7524 85.2053 46.9304 85.0272C47.0067 84.9509 47.0957 84.8746 47.172 84.7983C47.5662 84.4423 47.1084 84.7983 47.1212 84.8365C47.1084 84.7729 47.6934 84.4677 47.757 84.4295C47.8587 84.3787 47.9605 84.3278 48.0495 84.2769C48.4946 84.0353 47.9859 84.2388 47.9859 84.2897C47.9986 84.2261 48.5454 84.0989 48.6344 84.0735C48.7489 84.048 48.8506 84.0226 48.9651 83.9972C49.0159 83.9845 49.0795 83.9717 49.1304 83.959C49.4102 83.9081 49.3593 83.9209 48.9651 83.9717C49.0159 83.87 50.0206 83.9336 50.224 83.9336C50.8472 83.9336 51.483 83.9336 52.1061 83.9336C53.1616 83.9336 54.2171 83.9209 55.2853 83.9336C55.4125 83.9336 55.5269 83.9336 55.6541 83.9463C55.6414 83.9463 55.9974 83.959 56.0101 83.9717C55.972 83.8827 55.4379 83.87 55.9338 83.9717C56.1627 84.0226 56.3789 84.0735 56.5951 84.1371C56.6968 84.1752 56.8113 84.2134 56.913 84.2515C57.1292 84.3151 56.4171 83.9845 56.9257 84.2642C57.1292 84.366 57.32 84.4677 57.5107 84.5949C57.5489 84.6203 57.8668 84.7983 57.8541 84.8238C57.8541 84.8365 57.3708 84.4041 57.7396 84.7347C57.9049 84.8873 58.0702 85.0272 58.2228 85.1925C58.2991 85.2688 58.3754 85.3579 58.4517 85.4342C58.5026 85.4977 58.5662 85.5613 58.6171 85.6249C58.7315 85.7775 58.6934 85.7139 58.4772 85.4342C58.5408 85.4214 58.846 86.0064 58.8841 86.07C58.9477 86.1972 59.0113 86.3243 59.0749 86.4388C59.2911 86.8457 58.9604 86.0827 59.0494 86.3752C59.1385 86.6422 59.2275 86.9093 59.2911 87.1891C59.3165 87.3035 59.3292 87.418 59.3546 87.5324C59.4309 87.8376 59.3165 86.9729 59.3419 87.4561C59.3546 87.6977 59.3674 87.9266 59.3546 88.1683C59.3546 88.2827 59.3419 88.3972 59.3419 88.5243C59.3165 89.1093 59.4691 87.9775 59.3419 88.537C59.2783 88.8168 59.2148 89.0966 59.1257 89.3636C59.113 89.4018 59.024 89.6815 59.0113 89.6815C59.0494 89.6815 59.2911 89.1347 59.024 89.618C58.8968 89.8596 58.757 90.1012 58.6044 90.3428C58.5281 90.47 58.4772 90.7243 58.5662 90.4191C58.6934 90.2538 58.6934 90.2538 58.5535 90.4191C58.5026 90.4827 58.439 90.5463 58.3882 90.6099C58.2228 90.8006 58.0448 90.9659 57.8541 91.1313C57.8541 91.1313 57.6379 91.3474 57.5997 91.3474C57.8922 91.1185 57.9304 91.0931 57.7142 91.2457C57.6633 91.2711 57.6252 91.3093 57.5743 91.3347C57.3327 91.4873 57.0911 91.6145 56.8494 91.7417C56.5061 91.9324 56.9893 91.6781 56.9893 91.6908C56.9893 91.7289 56.5442 91.8434 56.5061 91.8561C56.2518 91.9324 56.0101 91.9706 55.7558 92.0341C55.3997 92.1232 56.4044 92.0087 55.8321 92.0214C55.6668 92.085 55.4888 92.0977 55.3107 92.0977C53.9755 92.1104 52.7038 93.2549 52.7674 94.6411C52.831 96.0018 53.8864 97.2098 55.3107 97.1844C58.3246 97.1463 60.9951 95.7093 62.7754 93.2931C64.365 91.1313 64.8355 88.2191 64.1361 85.6376C63.3986 82.9162 61.3893 80.7035 58.8205 79.6099C57.1928 78.9232 55.5142 78.885 53.7847 78.885C52.4495 78.885 51.1142 78.8723 49.7789 78.885C47.2865 78.8978 44.8321 79.8769 43.1154 81.6954C41.0807 83.8319 40.2541 86.7058 40.6992 89.5925C41.0934 92.2249 42.8356 94.6411 45.1373 95.9636C47.0321 97.0572 49.0541 97.1844 51.1778 97.1844C52.5639 97.1844 53.9373 97.1844 55.3234 97.1844C56.6587 97.1844 57.9304 96.0145 57.8668 94.6411C57.7905 93.2677 56.735 92.0977 55.3107 92.0977Z" fill="#608049"/>
<path d="M61.9064 90.5717C67.0313 90.5717 72.1688 90.5717 77.2937 90.5717C78.6543 90.5717 80.0277 90.4954 81.3249 90.0631C83.9699 89.1856 86.2844 87.3417 87.5942 84.8619C88.7133 82.7382 88.8786 80.5382 88.8786 78.2111C88.8786 72.8828 88.8786 67.5672 88.8786 62.2389C88.8786 55.7533 88.8786 49.2678 88.8786 42.7823C88.8786 38.0644 89.0439 33.3719 88.052 28.7176C86.0173 19.1165 79.8751 10.609 71.5838 5.43328C63.0764 0.130407 52.4579 -1.38288 42.8059 1.30035C33.3574 3.91999 25.1424 10.4818 20.4753 19.1038C18.0592 23.58 16.6349 28.476 16.2025 33.5372C16.0245 35.6482 16.0881 37.7719 16.0881 39.8829C16.0881 45.936 16.0881 51.9765 16.0881 58.0296C16.0881 58.4747 16.0881 58.9325 16.0881 59.3776C16.0881 60.7129 17.258 61.9845 18.6314 61.921C20.0048 61.8574 21.1748 60.8019 21.1748 59.3776C21.1748 54.4562 21.1748 49.5476 21.1748 44.6262C21.1748 42.121 21.1748 39.6158 21.1748 37.1106C21.1748 36.2077 21.1748 35.3176 21.2256 34.4147C21.2638 33.8297 21.3146 33.2448 21.3782 32.6598C21.3909 32.5453 21.4037 32.4309 21.4164 32.3164C21.48 31.706 21.3274 32.9141 21.4164 32.3037C21.4545 32.0112 21.5054 31.7315 21.5563 31.439C21.747 30.269 22.0141 29.1245 22.332 27.98C22.6499 26.861 23.0187 25.7546 23.451 24.661C23.4892 24.5592 23.5401 24.4448 23.5782 24.343C23.7944 23.7835 23.3366 24.8771 23.5909 24.3303C23.6927 24.1014 23.7944 23.8598 23.8961 23.6309C24.1378 23.0968 24.4048 22.5627 24.6846 22.0413C25.206 21.0494 25.7782 20.0829 26.3886 19.1419C26.6938 18.6714 27.0117 18.2136 27.3424 17.7685C27.4568 17.6159 27.9146 16.8529 27.5458 17.476C27.6984 17.2217 27.9273 16.9801 28.1181 16.7512C29.5551 15.009 31.1574 13.3939 32.9123 11.9697C33.1158 11.8044 33.3319 11.5755 33.5736 11.4483C33.5227 11.4737 33.103 11.8044 33.4591 11.5373C33.5736 11.4483 33.688 11.372 33.7897 11.283C34.2603 10.9396 34.7435 10.5963 35.2394 10.2784C36.1805 9.65523 37.147 9.0957 38.1389 8.57431C38.6348 8.30726 39.1435 8.06564 39.6522 7.82402C39.9065 7.70957 40.1608 7.59512 40.4279 7.48067C40.6441 7.37894 40.6059 7.2772 40.288 7.54426C40.4279 7.44252 40.6822 7.37894 40.8348 7.31535C41.9157 6.88299 43.0348 6.5142 44.1539 6.209C45.2602 5.9038 46.392 5.64946 47.5238 5.45871C47.8163 5.40785 48.0961 5.3697 48.3885 5.31883C48.6683 5.28068 48.5284 5.17894 48.2359 5.34426C48.3377 5.2934 48.5539 5.30611 48.6683 5.2934C49.2787 5.22981 49.9018 5.16623 50.5122 5.1408C51.644 5.07721 52.7758 5.0645 53.9076 5.11536C54.4926 5.1408 55.0903 5.17895 55.6752 5.22981C55.9677 5.25525 56.2602 5.2934 56.5527 5.31883C57.0105 5.3697 56.4509 5.2934 56.4001 5.2934C56.5908 5.2934 56.807 5.35698 57.0105 5.38241C59.3122 5.73848 61.5631 6.33617 63.7376 7.16275C64.0047 7.26449 64.259 7.36622 64.5261 7.46796C64.6914 7.53154 64.9203 7.53154 64.3862 7.40437C64.5133 7.44252 64.6532 7.51882 64.7804 7.56969C65.3272 7.81131 65.8613 8.06564 66.3827 8.33269C67.3873 8.84136 68.3665 9.4009 69.3076 9.99858C69.7781 10.3038 70.2486 10.609 70.7064 10.9396C70.9353 11.1049 71.1642 11.2703 71.3804 11.4356C71.4312 11.4737 71.6093 11.5755 71.6474 11.639C71.3549 11.4101 71.3168 11.3847 71.533 11.55C71.5966 11.6009 71.6601 11.6518 71.7237 11.7026C72.6139 12.4148 73.4786 13.1778 74.2925 13.9789C75.0937 14.7546 75.8567 15.5812 76.5688 16.4332C76.7468 16.6494 76.9249 16.8656 77.1029 17.0818C77.1665 17.1708 77.2428 17.2598 77.3064 17.3488C77.6624 17.7939 77.052 16.9928 77.2682 17.298C77.5989 17.7812 77.9676 18.239 78.2983 18.735C78.9341 19.6633 79.5191 20.617 80.0532 21.6089C80.3202 22.1049 80.5746 22.6009 80.8162 23.1095C80.9434 23.3639 81.0578 23.6182 81.1722 23.8725C81.2231 23.9743 81.2613 24.076 81.3121 24.1777C81.363 24.2795 81.4012 24.3812 81.452 24.4829C81.3121 24.165 81.2867 24.0887 81.363 24.2667C82.215 26.4286 82.9017 28.6286 83.3214 30.9176C83.3722 31.1974 83.4231 31.4898 83.474 31.7696C83.4867 31.8841 83.5121 31.9985 83.5248 32.113C83.5376 32.1765 83.5376 32.2274 83.5503 32.291C83.5884 32.5708 83.5884 32.5199 83.5248 32.1384C83.6266 32.3164 83.5884 32.7106 83.6139 32.9268C83.652 33.2447 83.6774 33.5754 83.7029 33.8933C83.7665 34.7326 83.7919 35.5719 83.7919 36.3985C83.7919 37.5049 83.7919 38.6112 83.7919 39.7176C83.7919 45.5418 83.7919 51.3661 83.7919 57.1776C83.7919 63.2181 83.7919 69.2712 83.7919 75.3117C83.7919 76.7232 83.7919 78.1221 83.7919 79.5336C83.7919 79.6099 83.7919 79.6735 83.7919 79.7498C83.7919 79.9914 83.7665 80.2203 83.7665 80.4619C83.741 81.0723 83.8936 79.8897 83.7665 80.4747C83.741 80.5891 83.7283 80.7036 83.7029 80.818C83.6393 81.0978 83.563 81.3775 83.474 81.6446C83.4358 81.7845 83.3722 81.9117 83.3341 82.0388C83.2578 82.2169 83.2959 82.1405 83.4231 81.8226C83.3722 81.9244 83.3341 82.0261 83.2832 82.1278C83.1688 82.3567 83.0416 82.5729 82.9144 82.7891C82.8254 82.929 82.6474 83.3486 82.4948 83.4122C82.5584 83.3232 82.622 83.2469 82.6855 83.1579C82.6092 83.2469 82.5457 83.3232 82.4694 83.4122C82.3931 83.5012 82.3168 83.5775 82.2405 83.6538C82.1769 83.7301 81.6173 84.366 81.5029 84.3278C81.541 84.3405 81.9352 84.0226 81.6173 84.2388C81.4774 84.3278 81.3376 84.4296 81.1977 84.5186C80.9815 84.6585 80.7653 84.7729 80.5364 84.8874C80.4728 84.9128 80.2058 85.0908 80.1549 85.0654C80.2821 85.129 80.6636 84.8746 80.2185 85.0272C79.926 85.129 79.6208 85.2307 79.3156 85.2943C79.1757 85.3324 79.0358 85.3579 78.896 85.3833C78.6289 85.4342 78.4636 85.307 78.9723 85.3833C78.7052 85.3452 78.3619 85.4342 78.0821 85.4342C78.0439 85.4342 77.9931 85.4342 77.9549 85.4342C77.6243 85.4342 77.3064 85.4342 76.9757 85.4342C75.6659 85.4342 74.3561 85.4342 73.0336 85.4342C69.9052 85.4342 66.7769 85.4342 63.6486 85.4342C63.0636 85.4342 62.4787 85.4342 61.9064 85.4342C60.5712 85.4342 59.2995 86.6041 59.3631 87.9775C59.4267 89.4145 60.4821 90.5717 61.9064 90.5717Z" fill="#608049"/>
</svg>
