<svg width="175" height="41" viewBox="0 0 175 41" fill="none" xmlns="http://www.w3.org/2000/svg">
<path d="M19.6298 33.309C23.5956 33.309 26.8105 30.0941 26.8105 26.1284C26.8105 22.1626 23.5956 18.9478 19.6298 18.9478C15.6641 18.9478 12.4492 22.1626 12.4492 26.1284C12.4492 30.0941 15.6641 33.309 19.6298 33.309Z" fill="#608049"/>
<path d="M14.5321 8.96345C11.133 7.90123 3.27254 10.8755 3.27254 16.399C3.27254 17.2488 3.56996 17.8861 4.16481 18.4385C4.33476 18.6084 4.50472 18.7359 4.71716 18.8634C7.09654 15.1243 12.0677 12.66 19.0784 11.6827C21.3728 11.3428 29.1058 10.5355 31.9951 12.9999C32.8023 13.6797 33.2272 14.5295 33.2272 15.5067C33.3122 17.6737 31.5277 19.5007 27.9586 20.9878C25.4093 22.05 22.5625 22.6024 21.2878 22.7299H21.2454C15.9342 23.2822 10.2407 23.6221 6.1193 22.5174C5.69441 24.217 5.82188 26.129 6.5017 28.2959C8.88108 35.8589 16.4866 38.4933 22.435 37.1336C27.6187 36.0289 32.7174 32.9272 32.2075 24.6844C32.1225 23.6221 32.5474 22.5599 33.3547 21.8801C33.8646 21.4127 34.7568 21.7101 34.8418 22.39C35.2667 26.8938 34.3744 30.9302 32.2075 34.0319C30.1255 37.0062 26.9389 39.0881 23.2423 39.9379C22.0526 40.1928 20.8205 40.3203 19.5883 40.3203C13.2149 40.3203 6.37423 36.7937 3.95236 29.1457C3.0601 26.2989 2.93263 23.7071 3.61245 21.4552C3.14507 21.2003 2.72018 20.9028 2.33778 20.5204C1.06312 19.5007 0.425781 18.0561 0.425781 16.399C0.425781 8.32612 13.5124 6.24416 14.1072 6.15918L14.5321 8.96345ZM7.47894 19.8831C11.8128 20.8179 18.1862 20.1805 21.0329 19.8831H21.0754C22.1376 19.7556 24.687 19.2458 26.9389 18.311C29.5307 17.2488 30.423 16.1866 30.423 15.5917C30.423 15.4643 30.3805 15.3368 30.168 15.1668C28.7234 13.9771 23.7097 13.9347 19.4608 14.5295C13.6823 15.3368 9.5609 17.1638 7.47894 19.8831Z" fill="#333333"/>
<path d="M19.5024 40.7873C13.7664 40.7873 6.1609 37.7706 3.48409 29.3153C2.59183 26.511 2.46436 23.9617 3.0592 21.7097C2.6768 21.4548 2.2944 21.1999 1.99698 20.9025C0.679823 19.7128 0 18.1832 0 16.3986C0 7.98582 13.469 5.81888 14.0213 5.7339L14.4462 5.64893L14.9561 8.87809L14.5312 8.96306L14.4037 9.34546C12.6192 8.79311 9.2201 9.38795 6.58578 11.3424C5.26863 12.3197 3.69654 13.9768 3.69654 16.3986C3.69654 17.1209 3.90898 17.6308 4.46134 18.0982C4.50383 18.1407 4.5888 18.1832 4.63129 18.2257C7.18063 14.6141 12.1518 12.1922 19.0775 11.215C21.4144 10.8751 29.2749 10.0253 32.3341 12.6171C33.2263 13.3819 33.6937 14.3592 33.7362 15.4639C33.8212 17.8433 31.9517 19.7977 28.2127 21.3273C25.6208 22.3896 22.7316 22.9844 21.4144 23.1119C16.4007 23.6217 10.7922 24.0041 6.5433 23.0269C6.24587 24.514 6.41583 26.2561 7.01067 28.1681C9.30508 35.4762 16.6982 38.0255 22.4342 36.7083C29.0199 35.2212 32.1641 31.1848 31.7392 24.6415C31.6543 23.4518 32.1216 22.2621 33.0139 21.4973C33.3963 21.1574 33.9062 21.0724 34.3736 21.2424C34.8409 21.4123 35.1384 21.7947 35.1808 22.2621C35.6907 26.9359 34.756 31.0998 32.504 34.2865C30.3796 37.3457 27.1079 39.5126 23.2839 40.3624C22.0518 40.6598 20.8196 40.7873 19.5024 40.7873ZM13.7239 6.62617C11.4295 7.05106 0.849779 9.38795 0.849779 16.3986C0.849779 17.9282 1.44462 19.2454 2.54934 20.2226C2.88925 20.5201 3.31414 20.8175 3.73903 21.0724L4.03645 21.2424L3.95147 21.5823C3.31414 23.7917 3.4416 26.2985 4.29138 29.0178C6.84072 37.0483 14.0638 39.895 19.5024 39.895C20.7346 39.895 21.9243 39.7675 23.0715 39.5126C26.6831 38.7053 29.7847 36.6659 31.7817 33.7766C33.8637 30.7599 34.756 26.8084 34.3311 22.3896C34.2886 22.1771 34.1186 22.0921 34.0761 22.0497C33.9487 22.0072 33.7362 22.0072 33.5663 22.1346C32.8864 22.772 32.504 23.6642 32.589 24.599C33.0139 31.4822 29.5723 35.9435 22.6041 37.5156C16.4857 38.9178 8.62525 36.156 6.1609 28.3805C5.43858 26.1286 5.31112 24.1316 5.7785 22.3471L5.86347 21.9222L6.28836 22.0497C10.4948 23.1544 16.4857 22.7295 21.2445 22.2196C22.5191 22.0921 25.3234 21.5398 27.8303 20.4776C31.2719 19.2029 32.9289 17.5033 32.8864 15.5064C32.8439 14.6566 32.4615 13.8918 31.7817 13.2969C29.5723 11.4274 23.8363 11.4699 19.1625 12.1072C12.2793 13.0845 7.39307 15.4639 5.09867 19.0754L4.88623 19.4153L4.54632 19.2029C4.33387 19.0754 4.12143 18.9055 3.90898 18.7355C3.22916 18.0982 2.88925 17.3334 2.88925 16.3986C2.88925 13.6368 4.63129 11.7673 6.11841 10.6626C8.4553 8.96306 11.7694 8.02831 14.0213 8.36822L13.7239 6.62617ZM13.0866 20.8175C11.0896 20.8175 9.09263 20.69 7.43556 20.3076L6.79823 20.1801L7.18063 19.6703C9.30508 16.866 13.554 14.954 19.4599 14.1042C23.6663 13.5094 28.8925 13.5094 30.5071 14.869C30.847 15.1664 30.8895 15.4214 30.8895 15.5913C30.9319 16.6111 29.5723 17.7583 27.1504 18.7355C24.856 19.6703 22.2642 20.2226 21.1595 20.3076C19.375 20.4776 16.2308 20.8175 13.0866 20.8175ZM8.28534 19.6278C12.5342 20.3501 18.3977 19.7553 20.9895 19.4578C22.0518 19.3304 24.5586 18.8205 26.768 17.9282C29.4448 16.8235 29.9972 15.8888 29.9972 15.5913C29.9972 15.5913 29.9972 15.5488 29.9122 15.4639C28.765 14.5291 24.3037 14.2742 19.5874 14.954C14.2763 15.6763 10.4098 17.2909 8.28534 19.6278Z" fill="#333333"/>
<path d="M13.2698 19.7374C12.9162 19.3815 12.9162 18.8121 13.2345 18.4563L30.457 0.271523C30.8107 -0.0843425 31.3765 -0.0843425 31.7302 0.235937C32.0838 0.591803 32.0838 1.16119 31.7655 1.51705L14.543 19.7018C14.1893 20.0933 13.6235 20.0933 13.2698 19.7374Z" fill="#608049"/>
<path d="M13.165 19.6301C12.873 19.2433 12.9825 18.6807 13.384 18.3994L34.5573 4.15892C34.9589 3.87763 35.543 3.98312 35.835 4.3699C36.127 4.75668 36.0175 5.31926 35.616 5.60056L14.4427 19.8411C14.0411 20.1224 13.457 20.0169 13.165 19.6301Z" fill="#608049"/>
<path d="M60.5036 22.645C60.5886 22.1777 60.8011 21.8802 61.0985 21.6678C61.3959 21.4554 61.7358 21.3704 62.1607 21.3704C62.5431 21.3704 62.968 21.4554 63.3504 21.6253C63.7753 21.7953 64.1152 22.0077 64.4551 22.2626C64.7525 22.5176 64.965 22.815 65.0924 23.1549C65.2199 23.4948 65.1774 23.8347 65.0075 24.1746C64.9225 24.3446 64.8375 24.5995 64.7525 24.9819C64.6675 25.3643 64.6251 25.8317 64.5401 26.3416C64.4976 26.8939 64.4126 27.4463 64.3701 28.0836C64.3276 28.721 64.2851 29.3158 64.2851 29.9531C64.2427 30.5905 64.2427 31.1853 64.2002 31.7377C64.1577 32.29 64.1577 32.7999 64.1577 33.2673C64.1577 34.1595 64.0302 35.0943 63.7753 36.0291C63.5203 36.9638 63.1379 37.7711 62.6281 38.5359C62.1182 39.2582 61.5234 39.8956 60.7586 40.3204C60.0362 40.7878 59.144 41.0003 58.2092 41.0003C57.8693 41.0003 57.5294 40.9578 57.147 40.8728C56.7646 40.7878 56.4247 40.6179 56.0848 40.4054C55.7874 40.193 55.4899 39.8956 55.2775 39.5556C55.065 39.2157 54.9801 38.7484 54.9801 38.2385C54.9801 37.7711 55.1075 37.3037 55.32 36.8364C55.5749 36.369 55.8723 35.9441 56.2547 35.5192C56.6371 35.0943 57.0195 34.6694 57.4869 34.287C57.9543 33.9046 58.3367 33.5222 58.7616 33.2248C59.1865 32.9274 59.5264 32.6299 59.8663 32.375C60.1637 32.1201 60.3762 31.9501 60.5036 31.7802V29.6982C60.2487 30.1231 59.9088 30.5905 59.4839 31.0579C59.059 31.5252 58.5066 31.9926 57.9543 32.375C57.3594 32.7574 56.7221 33.0973 55.9573 33.3523C55.235 33.6072 54.4702 33.7347 53.6629 33.7347C52.3882 33.7347 51.1561 33.5222 50.0938 33.0973C48.9891 32.6724 48.0544 32.0351 47.2896 31.2278C46.4823 30.4205 45.8874 29.4008 45.4201 28.1686C44.9952 26.9789 44.7402 25.5768 44.7402 24.0047C44.7402 22.645 44.9102 21.4129 45.2926 20.1807C45.675 18.991 46.1424 17.8863 46.7797 16.8665C47.417 15.8468 48.0969 14.9545 48.9466 14.1473C49.7539 13.34 50.6037 12.6601 51.496 12.0653C52.3882 11.5129 53.2805 11.0456 54.2153 10.7481C55.15 10.4507 56.0423 10.2808 56.8921 10.2808C57.8693 10.2808 58.7616 10.4082 59.6114 10.6207C60.4611 10.8331 61.1834 11.2155 61.7783 11.6829C62.4156 12.1503 62.883 12.7451 63.2229 13.4249C63.5628 14.1048 63.7328 14.9121 63.7328 15.8468C63.7328 16.6966 63.5203 17.5039 63.1379 18.2262C62.7555 18.9485 62.2457 19.5858 61.6083 20.1382C61.0135 20.6906 60.3337 21.073 59.6114 21.3704C58.889 21.6678 58.2092 21.7953 57.5294 21.7953C57.1045 21.7953 56.7221 21.7528 56.3822 21.6253C56.0423 21.4978 55.7874 21.3704 55.5749 21.1579C55.3625 20.988 55.1925 20.7755 55.065 20.5631C54.9376 20.3506 54.8951 20.1382 54.8951 19.8833C54.8951 19.6283 54.9376 19.4584 55.065 19.2884C55.1925 19.1185 55.32 18.9485 55.5324 18.8635C56.0848 18.8635 56.5946 18.7786 56.977 18.5661C57.3594 18.3537 57.6994 18.1412 57.9543 17.8438C58.2092 17.5464 58.3792 17.2489 58.5066 16.9515C58.6341 16.6541 58.6766 16.3567 58.6766 16.1442C58.6766 15.8468 58.6341 15.5494 58.5491 15.2095C58.4642 14.8696 58.2942 14.5297 58.1242 14.2322C57.9118 13.9348 57.6569 13.6799 57.317 13.4674C56.977 13.255 56.5946 13.17 56.1273 13.17C55.4474 13.17 54.7676 13.34 54.1728 13.6374C53.5779 13.9348 53.0256 14.3597 52.5157 14.9121C52.0058 15.4219 51.581 16.0593 51.1561 16.7391C50.7737 17.4189 50.4337 18.1412 50.1788 18.8635C49.9239 19.5858 49.7114 20.3506 49.584 21.073C49.4565 21.7953 49.3715 22.5176 49.3715 23.1124C49.3715 24.2596 49.5415 25.1944 49.8389 26.0442C50.1363 26.8514 50.5612 27.5738 51.1136 28.0836C51.6659 28.636 52.2608 29.0609 52.9831 29.3158C53.7054 29.5707 54.4277 29.7407 55.1925 29.7407C55.6599 29.7407 56.1698 29.6557 56.6371 29.4858C57.1045 29.3158 57.5719 29.1034 58.0393 28.8059C58.5066 28.5085 58.9315 28.1686 59.3139 27.7862C59.6963 27.4038 60.0787 26.9789 60.4186 26.5115C60.4186 25.8742 60.4186 25.1944 60.4186 24.557C60.3337 23.9622 60.3762 23.2824 60.5036 22.645ZM57.9118 38.281C58.0818 38.281 58.2942 38.196 58.5066 37.9836C58.7191 37.8136 58.9315 37.5587 59.1015 37.2612C59.3139 36.9638 59.4839 36.6239 59.6538 36.284C59.8238 35.9441 59.9938 35.5617 60.1212 35.2218C60.2487 34.8394 60.3762 34.4995 60.4611 34.202C60.5461 33.9046 60.5886 33.6072 60.5886 33.4372C60.5461 33.6497 60.2912 33.9471 59.9513 34.287C59.5689 34.6269 59.1865 35.0093 58.7616 35.3917C58.3367 35.7741 57.9543 36.199 57.6569 36.5814C57.317 36.9638 57.147 37.3462 57.147 37.6861C57.147 37.8136 57.1895 37.9411 57.317 38.0685C57.4444 38.196 57.6569 38.281 57.9118 38.281Z" fill="#333333"/>
<path d="M72.9109 19.8828C73.9306 19.8828 74.7804 20.0528 75.5452 20.3502C76.31 20.6901 76.9048 21.115 77.4147 21.6673C77.8821 22.2197 78.2645 22.857 78.4344 23.6218C78.6469 24.3866 78.6893 25.1514 78.5619 26.0012C78.4344 26.851 78.1795 27.6583 77.7546 28.3806C77.3297 29.1029 76.7773 29.7827 76.14 30.3351C75.5027 30.8874 74.7379 31.3123 73.9306 31.6523C73.1233 31.9922 72.231 32.1196 71.3388 32.1196C70.4465 32.1196 69.6392 31.9497 68.8744 31.6523C68.1096 31.3548 67.5148 30.8874 67.0049 30.3351C66.495 29.7827 66.1126 29.1454 65.8577 28.3806C65.6028 27.6583 65.5603 26.851 65.6452 26.0012C65.7727 25.1514 66.0276 24.3442 66.4525 23.6218C66.8774 22.857 67.4298 22.2197 68.0671 21.6673C68.7044 21.115 69.4692 20.6901 70.2765 20.3502C71.1688 20.0528 72.0186 19.8828 72.9109 19.8828ZM73.7606 26.2137C73.8031 25.7038 73.7606 25.1939 73.7181 24.7266C73.6332 24.2592 73.5482 23.8343 73.3782 23.4519C73.2508 23.0695 73.0383 22.8146 72.8684 22.6021C72.6559 22.3897 72.4435 22.2622 72.1885 22.2197C71.9761 22.2197 71.7212 22.3047 71.5087 22.4746C71.2963 22.6446 71.0838 22.8995 70.9139 23.2394C70.7439 23.5794 70.574 23.9618 70.489 24.4291C70.3615 24.8965 70.319 25.4064 70.2765 25.9162C70.234 26.4261 70.2765 26.936 70.3615 27.4034C70.4465 27.8707 70.5315 28.2956 70.7014 28.6355C70.8714 28.9754 70.9989 29.2729 71.2113 29.5278C71.4237 29.7402 71.6362 29.8677 71.8486 29.8677C72.1036 29.9102 72.316 29.8252 72.5709 29.6553C72.7834 29.4853 72.9958 29.2304 73.1658 28.8905C73.3357 28.5506 73.5057 28.1682 73.5907 27.7008C73.6756 27.2334 73.7606 26.7235 73.7606 26.2137Z" fill="#333333"/>
<path d="M95.4304 25.0235C95.7278 25.0235 95.9402 25.1085 96.0677 25.3209C96.1952 25.4909 96.2377 25.7033 96.2377 25.9582C96.2377 26.5956 96.0677 27.2329 95.6853 27.9977C95.3454 28.72 94.878 29.3998 94.3257 30.0372C93.7733 30.6745 93.136 31.2269 92.4562 31.6518C91.7763 32.0766 91.0965 32.2891 90.4167 32.2891C89.5669 32.2891 88.8871 32.1616 88.4197 31.8642C87.9523 31.5668 87.5699 31.1419 87.315 30.5045C86.8051 31.0144 86.2528 31.4393 85.6579 31.7792C85.0206 32.1191 84.4257 32.2891 83.7884 32.2891C83.0236 32.2891 82.3863 32.1191 81.8764 31.7792C81.3665 31.4393 80.9416 31.0144 80.6442 30.4196C80.3468 29.8672 80.0919 29.1874 79.9644 28.4651C79.8369 27.7428 79.752 26.9355 79.752 26.1282C79.752 25.7033 79.752 25.1934 79.7944 24.6836C79.8369 24.1312 79.8369 23.6213 79.8794 23.154C79.9219 22.6441 79.9644 22.2192 80.0069 21.8368C80.0494 21.4544 80.0919 21.1995 80.1344 21.072C80.2618 20.6896 80.4318 20.3922 80.7292 20.2222C81.0266 20.0523 81.324 19.9673 81.664 19.9248C82.0039 19.9248 82.3863 19.9673 82.7687 20.0948C83.1511 20.2222 83.491 20.3922 83.8309 20.6046C84.1283 20.8171 84.4257 21.0295 84.6382 21.2845C84.8506 21.5394 84.9356 21.7943 84.9356 22.0493C84.9356 22.3892 84.8931 22.7291 84.8081 23.1115C84.7232 23.4939 84.5957 23.8763 84.5107 24.3437C84.3832 24.7685 84.2983 25.2359 84.2133 25.7458C84.1283 26.2557 84.0858 26.7655 84.0858 27.3179C84.0858 27.8702 84.1708 28.3376 84.3408 28.6775C84.5107 29.0599 84.8081 29.2299 85.2755 29.2299C85.5729 29.2299 85.8279 29.1874 86.1253 29.0599C86.4227 28.9325 86.7201 28.805 86.9751 28.5925C86.9326 28.0827 86.8901 27.6153 86.8901 27.1479C86.8901 26.6805 86.8476 26.2132 86.8476 25.7883C86.8476 24.7685 86.8901 23.8338 86.9751 23.0265C87.0601 22.2192 87.1875 21.5394 87.315 21.072C87.4 20.7746 87.6124 20.5196 87.8673 20.3497C88.1648 20.1797 88.5047 20.0948 88.8446 20.0523C89.227 20.0098 89.6094 20.0098 90.0343 20.0948C90.4592 20.1797 90.8416 20.3072 91.1815 20.4772C91.5214 20.6471 91.8188 20.8596 92.0313 21.1145C92.2437 21.3694 92.3712 21.6669 92.3712 22.0068C92.3712 22.2192 92.2862 22.5166 92.1587 22.8141C92.0313 23.1115 91.9038 23.4514 91.7338 23.8763C91.5639 24.2587 91.4364 24.7261 91.3089 25.2359C91.1815 25.7458 91.0965 26.3406 91.0965 26.978C91.0965 27.5303 91.1815 27.9552 91.3939 28.2526C91.6064 28.5501 91.8613 28.6775 92.1587 28.6775C92.6261 28.6775 93.0085 28.5501 93.3059 28.3376C93.6034 28.1252 93.8583 27.8702 94.0707 27.5728C94.2832 27.2754 94.4106 26.978 94.4531 26.723C94.5381 26.4681 94.5806 26.2557 94.5806 26.1282C94.5806 25.8308 94.6656 25.5758 94.793 25.3634C94.963 25.1085 95.1754 25.0235 95.4304 25.0235Z" fill="#333333"/>
<path d="M102.313 20.6472C102.526 20.6047 102.781 20.6472 103.078 20.7321C103.375 20.8171 103.673 20.9446 103.97 21.157C104.225 21.3695 104.438 21.6244 104.608 21.9643C104.778 22.3042 104.82 22.7291 104.693 23.1965C104.65 23.6214 104.395 24.0038 104.055 24.3862C103.673 24.7261 103.248 24.9385 102.781 24.9385C102.568 24.9385 102.313 24.8961 102.101 24.7686C101.888 24.6836 101.718 24.5137 101.548 24.3437C101.421 24.1737 101.294 23.9613 101.251 23.7488C101.209 23.5364 101.209 23.2815 101.294 23.069C101.039 23.069 100.784 23.154 100.571 23.2815C100.359 23.4089 100.146 23.5789 99.9764 23.7913C99.8064 24.0038 99.6365 24.2162 99.4665 24.4712C99.2966 24.7261 99.1691 24.9385 99.0841 25.1935V25.151C98.8717 25.9583 98.7017 26.893 98.5318 27.9553C98.3618 29.0175 98.4043 30.1222 98.6167 31.2694C98.6167 31.3544 98.6167 31.4818 98.6167 31.5668C98.5742 31.6943 98.5318 31.7793 98.4043 31.8642C98.2768 31.9492 98.1069 32.0342 97.8519 32.1192C97.597 32.2042 97.2571 32.2042 96.8322 32.2042C96.7047 32.2042 96.5348 32.2042 96.3223 32.2042C96.1099 32.2042 95.8974 32.1617 95.6425 32.0767C95.4301 31.9917 95.1751 31.9067 94.9627 31.7368C94.7502 31.5668 94.5803 31.3119 94.4953 31.0145C94.3253 30.5046 94.2404 29.9522 94.1979 29.3574C94.1554 28.7201 94.1554 28.0827 94.1979 27.4454C94.2404 26.7656 94.2829 26.1282 94.4103 25.4484C94.4953 24.8111 94.6228 24.1737 94.7077 23.6214C94.8352 23.069 94.9202 22.5592 95.0477 22.0918C95.1751 21.6669 95.2601 21.327 95.3026 21.072C95.3876 20.7321 95.6 20.5197 95.855 20.3497C96.1524 20.1798 96.4498 20.0948 96.8322 20.0523C97.1721 20.0098 97.5545 20.0523 97.9369 20.1373C98.3193 20.2223 98.7017 20.3922 98.9991 20.5622C99.2966 20.7746 99.5515 20.9871 99.7639 21.2845C99.9764 21.5819 100.019 21.8793 100.019 22.2192C100.316 21.8368 100.699 21.4969 101.081 21.1995C101.506 20.9021 101.931 20.7321 102.313 20.6472Z" fill="#333333"/>
<path d="M129.676 25.0235C129.974 25.0235 130.186 25.1085 130.314 25.3209C130.441 25.4909 130.484 25.7033 130.484 25.9583C130.484 26.5106 130.314 27.148 129.974 27.8703C129.634 28.5926 129.166 29.2724 128.614 29.9097C128.062 30.5471 127.467 31.0994 126.829 31.5243C126.192 31.9492 125.555 32.2041 124.96 32.2041C123.813 32.2041 122.921 31.9492 122.241 31.3969C121.561 30.8445 121.178 29.9947 121.051 28.805C120.966 27.9552 120.924 27.1904 120.924 26.3832C120.924 25.6184 120.924 24.896 120.966 24.2162C120.796 25.0235 120.584 25.8733 120.329 26.808C120.074 27.7428 119.776 28.5926 119.394 29.3999C119.054 30.2072 118.629 30.887 118.162 31.3969C117.694 31.9492 117.142 32.2041 116.547 32.2041C115.995 32.2041 115.527 32.1617 115.145 32.0342C114.763 31.9067 114.423 31.7368 114.168 31.4393C113.913 31.1844 113.7 30.8445 113.53 30.4196C113.36 29.9947 113.276 29.4849 113.191 28.89C113.191 28.8475 113.191 28.8475 113.191 28.8475C113.191 28.8475 113.191 28.8475 113.191 28.805C113.148 28.1252 113.106 27.4879 113.063 26.808C113.063 26.1707 113.063 25.5759 113.063 24.981C112.893 25.7883 112.681 26.5956 112.426 27.4454C112.171 28.2952 111.873 29.06 111.533 29.7823C111.194 30.5046 110.811 31.0569 110.344 31.5243C109.876 31.9917 109.409 32.2041 108.814 32.2041C108.262 32.2041 107.794 32.1617 107.412 32.0342C107.03 31.9067 106.69 31.7368 106.435 31.4393C106.18 31.1844 105.967 30.8445 105.797 30.4196C105.628 29.9947 105.543 29.4849 105.458 28.89C105.458 28.8475 105.458 28.8475 105.458 28.8475C105.458 28.8475 105.458 28.8475 105.458 28.805C105.373 27.9977 105.33 27.2329 105.33 26.5106C105.33 25.7458 105.33 25.066 105.373 24.3862C105.415 23.7488 105.458 23.154 105.543 22.6016C105.628 22.0493 105.712 21.6244 105.84 21.242C105.967 20.8596 106.18 20.5622 106.52 20.3922C106.86 20.2223 107.242 20.1373 107.667 20.1798C108.092 20.1798 108.517 20.2648 108.942 20.4347C109.367 20.6047 109.749 20.8171 110.089 21.072C110.386 21.327 110.641 21.6244 110.726 21.9643C110.854 22.3042 110.811 22.6441 110.599 22.984C110.429 23.239 110.259 23.7064 110.089 24.4287C109.919 25.151 109.749 25.9158 109.621 26.8505C109.621 27.148 109.621 27.3179 109.706 27.3604C109.791 27.4454 109.919 27.4029 110.046 27.3179C110.174 27.2329 110.301 27.1055 110.471 26.893C110.641 26.6806 110.769 26.4256 110.896 26.1282C111.151 25.5334 111.448 24.9385 111.703 24.4287C112.001 23.8763 112.256 23.4089 112.511 22.984C112.766 22.5592 112.978 22.1768 113.191 21.8793C113.403 21.5819 113.53 21.327 113.658 21.1995C113.87 20.9021 114.168 20.6896 114.55 20.5197C114.933 20.3922 115.357 20.3072 115.782 20.3497C116.207 20.3497 116.632 20.4347 117.015 20.5622C117.439 20.6896 117.779 20.8596 118.034 21.1145C118.332 21.3695 118.502 21.6244 118.587 21.9643C118.672 22.2617 118.587 22.6441 118.374 22.984C118.204 23.239 118.034 23.7064 117.864 24.4287C117.694 25.151 117.524 25.9158 117.397 26.8505C117.397 27.148 117.397 27.3179 117.482 27.3604C117.567 27.4454 117.694 27.4029 117.822 27.3179C117.949 27.2329 118.077 27.1055 118.247 26.893C118.417 26.6806 118.544 26.4256 118.672 26.1282C119.266 24.7686 119.819 23.6639 120.414 22.8141C120.966 21.9643 121.391 21.327 121.646 20.9871C121.816 20.7321 122.113 20.5197 122.496 20.4347C122.878 20.3072 123.26 20.2648 123.685 20.3072C124.11 20.3497 124.535 20.4347 124.917 20.5622C125.342 20.6896 125.682 20.9021 125.98 21.1145C126.277 21.327 126.447 21.6244 126.532 21.9218C126.617 22.2192 126.575 22.6016 126.362 22.9416C126.277 23.069 126.192 23.239 126.065 23.5364C125.937 23.7913 125.852 24.0888 125.725 24.4712C125.64 24.8111 125.555 25.1935 125.47 25.6184C125.385 26.0432 125.342 26.4256 125.342 26.8505C125.342 27.3604 125.427 27.7853 125.555 28.1252C125.682 28.4651 125.895 28.6351 126.192 28.6351C126.617 28.6351 126.999 28.5076 127.382 28.2952C127.722 28.0827 128.062 27.8278 128.317 27.5304C128.572 27.2329 128.784 26.9355 128.911 26.6806C129.039 26.4256 129.124 26.2132 129.124 26.0857C129.124 25.7883 129.209 25.5334 129.336 25.3209C129.209 25.1085 129.421 25.0235 129.676 25.0235Z" fill="#333333"/>
<path d="M147.394 25.9587C147.394 26.511 147.224 27.1484 146.884 27.8707C146.544 28.593 146.077 29.2728 145.524 29.9101C144.972 30.5475 144.377 31.0998 143.655 31.5247C142.975 31.9496 142.295 32.2045 141.615 32.2045C141.106 32.2045 140.681 32.1196 140.341 31.9921C140.001 31.8646 139.746 31.6522 139.491 31.3973C139.279 31.1423 139.109 30.8449 138.981 30.505C138.854 30.1651 138.769 29.8252 138.726 29.4428L138.641 29.4003C138.004 30.2925 137.239 30.9724 136.389 31.5247C135.539 32.0771 134.605 32.332 133.585 32.332C132.778 32.332 132.055 32.2045 131.418 31.9496C130.781 31.6947 130.271 31.3548 129.803 30.9299C129.379 30.505 129.039 29.9951 128.826 29.4003C128.614 28.8054 128.486 28.1681 128.486 27.4883C128.486 26.681 128.614 25.8312 128.911 24.9814C129.209 24.1316 129.634 23.3244 130.143 22.602C130.696 21.8797 131.333 21.2849 132.098 20.86C132.863 20.3926 133.712 20.1802 134.647 20.1802C135.157 20.1802 135.624 20.2652 136.049 20.4351C136.474 20.6051 136.814 20.8175 137.069 21.03C137.367 21.2849 137.579 21.5398 137.706 21.7948C137.834 22.0922 137.919 22.3471 137.919 22.5596C137.919 22.942 137.706 23.1544 137.324 23.1544C137.197 23.1544 137.027 23.1119 136.814 23.0694C136.602 23.0269 136.262 22.9844 135.752 22.9844C135.285 22.9844 134.86 23.0694 134.477 23.2819C134.095 23.4943 133.712 23.7492 133.458 24.0892C133.203 24.4291 132.948 24.8115 132.778 25.2789C132.608 25.7037 132.523 26.1711 132.523 26.6385C132.523 26.9784 132.565 27.2758 132.693 27.5308C132.82 27.7857 132.948 27.9981 133.16 28.1681C133.373 28.3381 133.585 28.4655 133.797 28.5505C134.052 28.6355 134.265 28.678 134.52 28.678C134.987 28.678 135.412 28.5505 135.794 28.2956C136.177 28.0406 136.517 27.7432 136.772 27.3608C137.069 26.9784 137.282 26.5535 137.494 26.0861C137.706 25.6188 137.876 25.1939 137.961 24.769C138.004 24.0467 138.046 23.3668 138.131 22.772C138.216 22.1772 138.301 21.6673 138.429 21.2849C138.514 20.945 138.726 20.69 138.981 20.5201C139.236 20.3501 139.576 20.2652 139.958 20.2227C140.341 20.1802 140.723 20.2227 141.106 20.3076C141.488 20.3926 141.87 20.5626 142.21 20.7325C142.55 20.9025 142.848 21.1149 143.06 21.3699C143.272 21.6248 143.4 21.8797 143.4 22.1772C143.4 22.4746 143.357 22.772 143.23 23.0269C143.103 23.2819 142.975 23.5793 142.848 23.8767C142.72 24.2166 142.593 24.599 142.465 25.0239C142.338 25.4913 142.253 26.0437 142.253 26.766C142.253 26.9359 142.253 27.1484 142.295 27.3608C142.295 27.5733 142.338 27.7857 142.423 27.9557C142.508 28.1256 142.593 28.2956 142.72 28.423C142.848 28.5505 143.06 28.6355 143.272 28.6355C143.697 28.6355 144.08 28.508 144.377 28.2956C144.675 28.0831 144.93 27.8282 145.142 27.5308C145.354 27.2333 145.482 26.9359 145.567 26.681C145.652 26.426 145.694 26.2136 145.694 26.0861C145.694 25.7887 145.779 25.5338 145.907 25.3213C146.034 25.1089 146.247 25.0239 146.502 25.0239C146.799 25.0239 147.011 25.1089 147.139 25.3213C147.266 25.5338 147.394 25.7037 147.394 25.9587Z" fill="#333333"/>
<path d="M161.967 25.0233C162.264 25.0233 162.477 25.1082 162.604 25.3207C162.731 25.5331 162.774 25.7031 162.774 25.958C162.774 26.5104 162.604 27.1477 162.264 27.87C161.924 28.5923 161.457 29.2722 160.904 29.9095C160.352 30.5468 159.757 31.0992 159.12 31.5241C158.483 31.949 157.845 32.2039 157.25 32.2039C156.103 32.2039 155.211 31.949 154.531 31.3966C153.851 30.8442 153.469 29.9945 153.341 28.8048C153.256 27.955 153.214 27.1902 153.214 26.3829C153.214 25.5756 153.214 24.8958 153.256 24.216C153.087 25.0233 152.874 25.873 152.619 26.8078C152.364 27.7426 152.067 28.5923 151.684 29.3996C151.344 30.2069 150.92 30.8867 150.452 31.3966C149.985 31.949 149.432 32.2039 148.838 32.2039C148.285 32.2039 147.818 32.1614 147.435 32.0339C147.053 31.9065 146.713 31.7365 146.458 31.4391C146.203 31.1842 145.991 30.8442 145.821 30.4194C145.651 29.9945 145.566 29.4846 145.481 28.8898C145.481 28.8473 145.481 28.8473 145.481 28.8473C145.481 28.8473 145.481 28.8473 145.481 28.8048C145.396 27.9975 145.354 27.2327 145.354 26.5104C145.354 25.7456 145.354 25.0657 145.396 24.3859C145.438 23.7486 145.481 23.1537 145.566 22.6014C145.651 22.049 145.736 21.6241 145.863 21.2417C145.991 20.7744 146.203 20.4769 146.501 20.307C146.798 20.1795 147.096 20.0945 147.435 20.137C147.775 20.1795 148.158 20.2645 148.583 20.392C148.965 20.5194 149.39 20.6894 149.772 20.8169C149.985 20.9018 150.197 20.9868 150.367 21.1143C150.537 21.2417 150.665 21.4117 150.75 21.5817C150.835 21.7516 150.877 21.9641 150.877 22.219C150.877 22.4314 150.792 22.6864 150.622 22.9413C150.452 23.1962 150.282 23.6636 150.112 24.3859C149.942 25.1082 149.772 25.873 149.645 26.8078C149.645 27.1052 149.645 27.2752 149.73 27.3177C149.815 27.4026 149.942 27.3601 150.07 27.2752C150.197 27.1902 150.325 27.0627 150.495 26.8503C150.665 26.6378 150.792 26.3829 150.92 26.0855C151.514 24.7258 152.067 23.6211 152.619 22.7289C153.171 21.8366 153.596 21.2417 153.894 20.9018C154.106 20.6469 154.404 20.4769 154.786 20.392C155.168 20.307 155.551 20.2645 155.976 20.307C156.401 20.3495 156.826 20.392 157.208 20.5194C157.59 20.6469 157.93 20.8169 158.228 21.0718C158.525 21.2842 158.695 21.5817 158.78 21.8791C158.865 22.1765 158.78 22.5164 158.568 22.8988C158.483 23.0263 158.398 23.1962 158.27 23.4512C158.143 23.7061 158.058 24.0035 157.93 24.3009C157.845 24.6409 157.76 25.0233 157.675 25.4057C157.59 25.8305 157.548 26.2554 157.548 26.7228C157.548 27.2327 157.633 27.6576 157.76 27.955C157.888 28.2949 158.1 28.4649 158.355 28.5074C158.78 28.5074 159.162 28.3799 159.545 28.1674C159.885 27.955 160.225 27.7001 160.48 27.4026C160.735 27.1052 160.947 26.8078 161.074 26.5529C161.202 26.2979 161.287 26.0855 161.287 25.958C161.287 25.6606 161.372 25.4057 161.499 25.1932C161.542 25.1082 161.712 25.0233 161.967 25.0233Z" fill="#333333"/>
<path d="M171.867 12.7874C172.25 13.4248 172.632 14.0196 172.972 14.6569C173.355 15.2943 173.652 15.9741 173.949 16.7389C174.247 17.5037 174.459 18.3535 174.629 19.3307C174.799 20.308 174.884 21.4552 174.884 22.7298C174.884 23.9195 174.714 25.0667 174.332 26.2139C173.949 27.3611 173.439 28.3384 172.717 29.2306C171.995 30.1229 171.103 30.8027 170.04 31.3551C168.978 31.9075 167.746 32.1624 166.386 32.1624C165.494 32.1624 164.729 31.9924 164.049 31.695C163.37 31.3976 162.817 30.9727 162.35 30.4628C161.883 29.953 161.543 29.3156 161.33 28.6358C161.118 27.9135 160.99 27.1487 160.99 26.3414C160.99 25.3217 161.203 24.4294 161.585 23.6221C161.967 22.8148 162.477 22.1775 163.072 21.6251C163.667 21.0728 164.304 20.6904 164.984 20.393C165.664 20.0955 166.344 19.9681 166.939 19.9681C168.001 19.9681 168.851 20.2655 169.403 20.8178C169.955 21.3702 170.253 22.05 170.253 22.8998C170.253 23.1547 170.21 23.3672 170.083 23.6221C169.955 23.8346 169.828 24.047 169.615 24.2594C169.403 24.4719 169.233 24.5994 168.978 24.7268C168.766 24.8543 168.511 24.8968 168.298 24.8968C168.001 24.8968 167.788 24.8543 167.576 24.7268C167.364 24.5994 167.194 24.4719 167.109 24.2594C166.981 24.0895 166.896 23.877 166.896 23.6221C166.854 23.3672 166.896 23.1547 166.939 22.8998C166.599 23.0273 166.344 23.2397 166.089 23.4946C165.834 23.7496 165.622 24.0895 165.452 24.4294C165.282 24.7693 165.154 25.1092 165.069 25.4916C164.984 25.874 164.942 26.2139 164.942 26.5538C164.942 26.8513 164.984 27.1487 165.069 27.4461C165.154 27.7435 165.282 27.9985 165.452 28.2109C165.622 28.4234 165.791 28.6358 166.046 28.7633C166.259 28.8907 166.514 28.9757 166.811 28.9757C167.321 28.9757 167.831 28.8482 168.298 28.5508C168.766 28.2534 169.191 27.871 169.573 27.3186C169.955 26.8088 170.253 26.2139 170.508 25.4916C170.763 24.7693 170.89 24.047 170.975 23.1972C171.018 22.3899 170.975 21.6251 170.805 20.9028C170.635 20.1805 170.423 19.4582 170.125 18.8209C169.828 18.1835 169.531 17.6312 169.191 17.1213C168.851 16.6539 168.553 16.229 168.256 15.9316C167.788 15.4642 167.534 15.0393 167.449 14.572C167.364 14.1046 167.364 13.7222 167.491 13.3398C167.619 12.9574 167.873 12.66 168.171 12.405C168.468 12.1501 168.851 11.9801 169.276 11.8952C169.7 11.8102 170.125 11.8102 170.55 11.9377C171.06 12.1501 171.485 12.405 171.867 12.7874Z" fill="#333333"/>
<path d="M14.4039 5.69194C14.4039 5.69194 19.3326 4.75718 17.803 8.83612C16.2734 12.9151 15.1687 9.89835 14.5313 9.38848C14.4463 9.34599 14.1914 9.26101 14.1914 9.26101L14.4039 5.69194Z" fill="#333333"/>
</svg>
