<svg width="31" height="23" viewBox="0 0 31 23" fill="none" xmlns="http://www.w3.org/2000/svg">
<g opacity="0.6">
<path d="M25.5214 22.6214H5.47829C4.86476 22.6214 4.36609 22.1224 4.36609 21.5088V12.2472L1 9.19903L4.07581 9.1984C5.31385 9.19684 7.57465 9.19401 9.97071 9.19401H11.4849C13.0936 9.19401 14.0398 9.19684 15.5047 9.20656C16.9605 9.19684 17.9058 9.19401 19.5154 9.19401H21.0293C23.4254 9.19401 25.6862 9.19684 26.9245 9.1984L30 9.19903L26.6342 12.2469V21.5088C26.6339 22.1224 26.1346 22.6214 25.5214 22.6214ZM5.76733 21.2198H25.2327V11.6252L26.3656 10.599C25.0701 10.5974 23.1002 10.5956 21.0287 10.5956H19.5148C17.9089 10.5956 16.9662 10.5981 15.5041 10.6078C14.0332 10.5981 13.0895 10.5956 11.4843 10.5956H9.97008C7.89883 10.5956 5.92895 10.5974 4.63347 10.599L5.76701 11.6252L5.76733 21.2198Z" fill="#1D1D1D"/>
<path d="M26.5584 7.43437H4.44127V6.73391C4.44127 5.39011 6.71086 4.14516 7.68654 3.67254C8.8182 3.12397 11.063 2.22423 13.9988 1.98008L13.6913 1H17.3081L17.0006 1.98008C19.9364 2.22423 22.1809 3.12397 23.3122 3.67254C24.2882 4.14516 26.5584 5.39011 26.5584 6.73391V7.43437ZM6.4962 6.03314H24.5029C23.2112 5.01257 20.1209 3.46196 16.0396 3.32702L15.4992 3.30913L14.9591 3.32702C10.8778 3.46196 7.78759 5.01257 6.4962 6.03314Z" fill="#1D1D1D"/>
<path d="M25.5214 22.6214H5.47829C4.86476 22.6214 4.36609 22.1224 4.36609 21.5088V12.2472L1 9.19903L4.07581 9.1984C5.31385 9.19684 7.57465 9.19401 9.97071 9.19401H11.4849C13.0936 9.19401 14.0398 9.19684 15.5047 9.20656C16.9605 9.19684 17.9058 9.19401 19.5154 9.19401H21.0293C23.4254 9.19401 25.6862 9.19684 26.9245 9.1984L30 9.19903L26.6342 12.2469V21.5088C26.6339 22.1224 26.1346 22.6214 25.5214 22.6214ZM5.76733 21.2198H25.2327V11.6252L26.3656 10.599C25.0701 10.5974 23.1002 10.5956 21.0287 10.5956H19.5148C17.9089 10.5956 16.9662 10.5981 15.5041 10.6078C14.0332 10.5981 13.0895 10.5956 11.4843 10.5956H9.97008C7.89883 10.5956 5.92895 10.5974 4.63347 10.599L5.76701 11.6252L5.76733 21.2198Z" stroke="#1D1D1D" stroke-width="0.5"/>
<path d="M26.5584 7.43437H4.44127V6.73391C4.44127 5.39011 6.71086 4.14516 7.68654 3.67254C8.8182 3.12397 11.063 2.22423 13.9988 1.98008L13.6913 1H17.3081L17.0006 1.98008C19.9364 2.22423 22.1809 3.12397 23.3122 3.67254C24.2882 4.14516 26.5584 5.39011 26.5584 6.73391V7.43437ZM6.4962 6.03314H24.5029C23.2112 5.01257 20.1209 3.46196 16.0396 3.32702L15.4992 3.30913L14.9591 3.32702C10.8778 3.46196 7.78759 5.01257 6.4962 6.03314Z" stroke="#1D1D1D" stroke-width="0.5"/>
</g>
</svg>
