<svg width="105" height="110" viewBox="0 0 105 110" fill="none" xmlns="http://www.w3.org/2000/svg">
<path d="M105 109.983C105 109.983 79.6798 112.253 86.9755 64.8543C94.2711 17.5972 53.5014 18.7325 36.9074 20.7193C26.3215 21.9965 6.44458e-06 27.1054 7.62939e-06 -4.5897e-06L2.8219e-06 109.983C0.143054 109.983 105 109.983 105 109.983Z" fill="white"/>
<path d="M48 35.0312C43.638 35.0312 39.6016 36.138 35.8906 38.3516C32.1797 40.5 29.2174 43.4297 27.0039 47.1406C24.8555 50.8516 23.7812 54.888 23.7812 59.25C23.7812 63.612 24.8555 67.6484 27.0039 71.3594C29.2174 75.0703 32.1797 78 35.8906 80.1484C39.6016 82.362 43.638 83.4688 48 83.4688C52.362 83.4688 56.3984 82.362 60.1094 80.1484C63.8203 78 66.75 75.0703 68.8984 71.3594C71.112 67.6484 72.2188 63.612 72.2188 59.25C72.2188 54.888 71.112 50.8516 68.8984 47.1406C66.75 43.4297 63.8203 40.5 60.1094 38.3516C56.3984 36.138 52.362 35.0312 48 35.0312ZM59.3281 61.5938L42.1406 71.457C41.3594 71.9128 40.5781 71.9128 39.7969 71.457C39.0156 71.0013 38.625 70.3177 38.625 69.4062V49.0938C38.625 48.1823 39.0156 47.4987 39.7969 47.043C40.5781 46.5872 41.3594 46.5872 42.1406 47.043L59.3281 57.4922C60.1094 57.9479 60.5 58.6315 60.5 59.543C60.5 60.4544 60.1094 61.138 59.3281 61.5938Z" fill="#608049"/>
</svg>
